HIERARCHY
ROOT Hips
{
	OFFSET -0.179506 -22.333345 2.821913
	CHANNELS 6 Xposition Yposition Zposition Zrotation Yrotation Xrotation 
	JOINT LeftUpLeg
	{
		OFFSET 6.951974 -9.140623 -0.681533
		CHANNELS 3 Zrotation Yrotation Xrotation
		JOINT LeftLeg
		{
			OFFSET 3.427654 -37.519855 -0.449580
			CHANNELS 3 Zrotation Yrotation Xrotation
			JOINT LeftFoot
			{
				OFFSET -1.359570 -39.796059 -4.369333
				CHANNELS 3 Zrotation Yrotation Xrotation
				JOINT LeftToe
				{
					OFFSET 2.635814 -5.579078 11.928840
					CHANNELS 3 Zrotation Yrotation Xrotation
					End Site
					{
						OFFSET 0.000000 0.000000 0.000000
					}
				}
			}
		}
	}
	JOINT RightUpLeg
	{
		OFFSET -6.767048 -9.052170 -0.431982
		CHANNELS 3 Zrotation Yrotation Xrotation
		JOINT RightLeg
		{
			OFFSET -3.829005 -38.256897 -0.885003
			CHANNELS 3 Zrotation Yrotation Xrotation
			JOINT RightFoot
			{
				OFFSET 1.577377 -39.841461 -4.231180
				CHANNELS 3 Zrotation Yrotation Xrotation
				JOINT RightToe
				{
					OFFSET -2.537174 -4.814398 12.334795
					CHANNELS 3 Zrotation Yrotation Xrotation
					End Site
					{
						OFFSET 0.000000 0.000000 0.000000
					}
				}
			}
		}
	}
	JOINT Spine
	{
		OFFSET -0.253288 10.896323 -2.669631
		CHANNELS 3 Zrotation Yrotation Xrotation
		JOINT Spine1
		{
			OFFSET 0.548704 13.518043 0.109247
			CHANNELS 3 Zrotation Yrotation Xrotation
			JOINT Spine2
			{
				OFFSET 0.145701 5.292222 2.542457
				CHANNELS 3 Zrotation Yrotation Xrotation
				JOINT Neck
				{
					OFFSET -0.277840 21.387037 -4.285703
					CHANNELS 3 Zrotation Yrotation Xrotation
					JOINT Head
					{
						OFFSET 0.515184 6.496960 5.134897
						CHANNELS 3 Zrotation Yrotation Xrotation
						End Site
						{
							OFFSET 0.000000 0.000000 0.000000
						}
					}
				}
				JOINT LeftShoulder
				{
					OFFSET 7.884473 12.174932 -3.408961
					CHANNELS 3 Zrotation Yrotation Xrotation
					JOINT LeftArm
					{
						OFFSET 9.097692 3.046888 -0.886815
						CHANNELS 3 Zrotation Yrotation Xrotation
						JOINT LeftForeArm
						{
							OFFSET 25.961220 -1.277207 -2.745643
							CHANNELS 3 Zrotation Yrotation Xrotation
							JOINT LeftHand
							{
								OFFSET 24.923361 0.898606 -0.117091
								CHANNELS 3 Zrotation Yrotation Xrotation
								End Site
								{
									OFFSET 0.000000 0.000000 0.000000
								}
							}
						}
					}
				}
				JOINT RightShoulder
				{
					OFFSET -8.175920 11.883285 -3.861528
					CHANNELS 3 Zrotation Yrotation Xrotation
					JOINT RightArm
					{
						OFFSET -9.601238 3.255117 -0.914307
						CHANNELS 3 Zrotation Yrotation Xrotation
						JOINT RightForeArm
						{
							OFFSET -25.374195 -1.332924 -2.140099
							CHANNELS 3 Zrotation Yrotation Xrotation
							JOINT RightHand
							{
								OFFSET -25.529810 0.777228 -0.555919
								CHANNELS 3 Zrotation Yrotation Xrotation
								End Site
								{
									OFFSET 0.000000 0.000000 0.000000
								}
							}
						}
					}
				}
			}
		}
	}
}
MOTION
Frames: 6
Frame Time: 0.033333
-14.150819 -112.018753 93.009590 -173.982889 2.193324 86.992536 4.849348 2.016163 1.649327 -1.618869 -1.918881 6.099881 -0.303324 7.811657 -3.927949 nan nan nan -3.449025 -1.281742 6.285288 2.995908 0.571112 -3.093287 2.302264 -3.221033 -6.965480 nan nan nan 2.089624 1.613378 7.643184 3.180561 -4.806724 9.025070 2.588405 -1.366020 -3.509694 -4.039383 2.642204 -0.566420 2.166495 -1.603095 -7.355221 -27.320314 -5.508454 3.113628 -59.220751 -8.281208 14.458627 4.553317 -24.343856 6.575453 -9.878895 -11.864340 -0.236012 28.235414 9.302478 3.440825 52.609710 6.513874 11.641418 -10.685232 21.543706 -6.728264 11.825135 11.862481 -3.424228 
-14.280306 -111.983932 92.951485 -173.823277 2.101029 87.142476 4.724966 1.791141 1.498568 -1.776769 -2.123746 6.030813 -0.372030 7.730750 -4.037942 nan nan nan -3.648253 -1.256407 6.196413 2.931445 0.270268 -3.083204 2.488017 -3.340457 -6.999855 nan nan nan 2.204029 1.600867 7.244712 3.059882 -4.775293 9.029653 2.600046 -1.477815 -3.178034 -4.111040 2.695552 -0.808130 2.106418 -1.644933 -7.352306 -27.140947 -5.604920 3.367251 -59.405639 -8.405266 14.256113 4.510337 -24.509924 6.513850 -9.539335 -12.129342 -0.922609 27.993473 9.363127 3.648736 52.844601 6.658811 11.454643 -10.695000 21.808436 -7.038890 11.322874 12.096428 -4.408801 
-14.399913 -111.897087 92.943039 -173.827321 1.998524 87.104510 4.572826 1.632551 1.561110 -1.890245 -2.260050 6.092226 -0.406609 7.659100 -4.079013 nan nan nan -3.831490 -1.225548 6.475521 2.834144 0.173590 -3.387222 2.600449 -3.363521 -6.943887 nan nan nan 2.312475 1.641465 7.135943 2.930896 -4.713165 9.014414 2.557005 -1.522584 -3.027123 -4.129857 2.666771 -0.918510 2.045147 -1.606086 -7.297344 -27.173112 -5.542774 3.503686 -59.402501 -8.345455 14.092003 4.609948 -24.790808 6.606525 -9.561437 -12.298212 -1.132805 27.903168 9.290996 3.682207 52.913673 6.605130 11.383049 -10.833409 22.047978 -7.058870 11.334109 12.175249 -4.654381 
-14.521962 -111.849503 92.960144 -174.037274 1.715109 86.842966 4.211248 1.794463 1.825412 -1.713919 -2.214709 6.104074 0.924217 9.757521 -12.010257 nan nan nan -4.217235 -1.213434 6.834571 2.662151 0.445417 -3.507646 3.343745 -3.366315 -7.480243 nan nan nan 2.065389 1.744449 7.497126 3.015183 -4.664023 9.122893 2.518950 -1.462911 -3.134044 -4.189058 2.505563 -1.032771 1.980702 -1.374334 -7.487113 -26.987808 -5.419231 3.361179 -59.584223 -7.987131 13.976919 4.593772 -25.408928 6.649473 -9.151610 -12.366966 -1.526201 27.599374 9.372513 3.543907 53.070166 6.538903 11.248783 -10.592748 22.259451 -6.827365 11.223754 12.561484 -5.217175 
-14.568283 -111.883270 93.259178 -174.634588 2.344155 85.566344 4.967786 1.841437 3.273155 -1.839498 -2.081004 6.283890 0.931674 10.101742 -12.611190 nan nan nan -3.443281 -0.852972 8.178350 2.534805 0.350732 -3.650785 3.488888 -3.090907 -7.544270 nan nan nan 3.031567 1.770263 9.225507 2.804241 -4.232864 8.974324 2.755824 -1.449750 -3.035297 -4.596591 2.674340 -1.398894 1.957744 -1.455486 -8.053972 -27.334704 -4.969281 3.210781 -62.031735 -8.853710 12.771844 9.569067 -23.233086 5.966180 -12.962516 -13.933953 -0.112569 27.230192 9.572285 3.192285 53.546496 6.483999 11.025621 -11.443889 22.330204 -6.024681 12.529863 13.550213 -5.587390 
-14.623978 -111.828384 93.623962 -175.521785 1.752096 84.139040 4.364288 1.947502 5.286450 -2.070565 -1.956068 6.001543 1.236074 10.770635 -13.269336 nan nan nan -3.728197 -0.068522 9.925327 1.878149 0.697264 -4.239290 3.480926 -2.805644 -8.314265 nan nan nan 2.260307 2.290666 10.696200 2.619456 -3.800466 9.485315 3.200493 -1.358869 -3.399941 -4.699766 2.491127 -1.535114 2.153457 -1.230908 -8.476770 -27.410943 -4.903813 3.133815 -62.179303 -8.622870 12.321948 10.402244 -23.323566 5.997023 -14.094324 -14.582539 -0.185628 27.324246 9.758882 2.865623 53.652891 5.988716 11.078570 -11.898361 22.929427 -5.966749 12.860733 14.145946 -5.901563 
